<?xml version="1.0" standalone="no"?>
<!DOCTYPE svg PUBLIC "-//W3C//DTD SVG 20010904//EN"
 "http://www.w3.org/TR/2001/REC-SVG-20010904/DTD/svg10.dtd">
<svg version="1.0" xmlns="http://www.w3.org/2000/svg"
 width="634.000000pt" height="864.000000pt" viewBox="0 0 634.000000 864.000000"
 preserveAspectRatio="xMidYMid meet">
<metadata>
Created by potrace 1.16, written by Peter Selinger 2001-2019
</metadata>
<g transform="translate(0.000000,864.000000) scale(0.100000,-0.100000)"
fill="#000000" stroke="none">
<path d="M0 4320 l0 -4320 3170 0 3170 0 0 4320 0 4320 -3170 0 -3170 0 0
-4320z m4673 4156 c32 -10 76 -32 100 -50 51 -39 98 -126 105 -195 10 -104
-55 -219 -156 -277 l-47 -27 -1421 -4 -1421 -4 -67 31 c-74 35 -73 28 -14 98
25 29 28 40 28 106 0 81 18 117 69 139 18 7 170 10 496 8 501 -3 584 3 625 41
28 26 50 78 50 117 l0 30 88 3 c48 2 407 3 797 2 651 0 715 -2 768 -18z
m-2335 -1253 c-19 -68 -5 -151 42 -246 52 -108 107 -167 153 -167 44 0 57 15
57 69 0 45 -52 210 -97 309 -13 29 -22 56 -19 59 9 9 159 -29 271 -69 61 -22
173 -53 250 -70 122 -26 161 -30 310 -32 205 -1 276 12 549 106 181 62 181 62
313 66 117 3 134 2 139 -13 4 -9 2 -26 -5 -38 -6 -12 -11 -31 -10 -42 1 -24
-10 -84 -18 -105 -3 -8 -7 -20 -9 -27 -4 -22 -68 -158 -86 -185 -10 -14 -18
-29 -18 -33 0 -8 -58 -90 -109 -153 -26 -32 -37 -40 -44 -30 -6 9 -7 7 -3 -6
7 -21 -21 -59 -36 -50 -4 3 -7 1 -6 -4 4 -15 -125 -132 -139 -127 -7 2 -12 0
-10 -5 1 -5 -25 -35 -58 -65 -48 -44 -65 -54 -85 -50 -16 4 -20 2 -12 -3 9 -6
6 -12 -13 -20 -15 -7 -24 -8 -20 -3 3 5 0 13 -6 17 -7 4 -9 3 -5 -4 3 -6 -5
-20 -20 -31 -14 -11 -23 -24 -20 -30 4 -5 -3 -7 -16 -3 -14 3 -19 1 -14 -6 3
-6 2 -13 -3 -16 -5 -4 -13 -1 -17 5 -5 8 -3 9 6 4 8 -5 11 -4 6 3 -8 13 -36 5
-36 -10 0 -5 5 -6 10 -3 6 3 10 1 10 -4 0 -14 -9 -14 -49 0 -34 12 -43 30 -11
22 16 -4 19 -2 14 12 -4 9 -10 13 -13 8 -3 -4 -17 -10 -31 -11 -20 -3 -23 -1
-12 9 6 7 12 18 12 24 0 5 -5 3 -10 -5 -6 -10 -10 -11 -10 -3 0 8 -13 12 -37
10 -43 -3 -66 -14 -58 -28 4 -5 0 -9 -9 -9 -44 0 -112 -114 -136 -227 -7 -35
-15 -63 -19 -63 -3 0 -21 30 -40 66 -39 75 -97 144 -150 176 -64 39 -244 169
-320 231 -128 105 -240 234 -323 372 -44 73 -60 110 -104 239 -41 122 -53 193
-32 201 12 5 92 17 155 24 8 1 9 -9 1 -36z m993 -2216 c144 -60 566 -340 719
-479 94 -84 164 -129 212 -136 31 -4 40 -10 46 -31 11 -41 8 -247 -4 -262 -6
-8 -15 -32 -19 -54 -4 -22 -11 -46 -17 -52 -6 -7 -7 -20 -4 -29 3 -9 -3 -36
-14 -61 -11 -25 -20 -51 -20 -58 0 -7 -8 -16 -17 -20 -10 -4 -425 -9 -923 -11
-498 -2 -925 -6 -950 -9 -80 -8 -83 -5 -123 113 -54 159 -69 296 -51 448 l6
51 49 1 c59 1 98 20 163 81 84 77 281 227 341 259 11 5 71 47 134 91 140 100
223 147 293 165 75 21 115 19 179 -7z m1428 -1408 c75 -49 112 -126 112 -233
0 -95 -28 -163 -92 -224 -87 -84 13 -79 -1374 -80 -676 -1 -1287 -5 -1356 -8
-149 -7 -222 5 -294 49 -90 54 -143 132 -152 221 l-5 51 38 3 c21 1 39 4 41 6
8 8 -11 65 -20 59 -6 -4 -8 0 -4 11 4 10 3 15 -3 11 -6 -3 -10 -1 -10 5 0 21
-20 -1 -21 -23 -1 -17 -2 -18 -6 -4 -7 26 34 102 70 133 75 63 -40 59 1563 58
l1460 -1 53 -34z m-3898 -1481 c1 -2 3 -313 4 -693 2 -511 0 -694 -8 -704 -9
-11 -9 -13 -1 -8 11 6 27 -54 28 -105 1 -9 5 -20 10 -25 5 -5 6 0 3 12 -6 16
-2 14 17 -7 14 -16 30 -28 35 -28 6 0 8 -7 5 -15 -4 -8 -1 -15 6 -15 12 0 41
-25 35 -31 -2 -2 15 -5 38 -7 29 -1 48 -9 62 -25 18 -20 50 -26 90 -18 22 5
137 2 155 -4 12 -4 20 -2 20 5 0 6 4 8 10 5 5 -3 20 1 34 10 19 13 25 13 29 3
4 -9 6 -8 6 3 1 17 41 35 41 18 0 -4 7 -6 16 -2 11 4 12 8 4 13 -8 5 -2 10 14
14 14 3 26 11 26 17 0 7 6 6 17 -2 10 -9 14 -9 10 -2 -9 14 22 55 35 47 4 -3
5 2 1 11 -3 10 0 21 8 26 12 7 15 117 20 656 9 889 7 825 21 817 7 -5 8 -3 3
6 -14 23 18 30 142 30 99 0 125 -3 138 -16 15 -15 16 -83 13 -738 -2 -596 -5
-726 -17 -748 -8 -16 -18 -28 -23 -28 -5 0 -8 -6 -7 -12 3 -25 -1 -35 -16 -35
-8 0 -15 5 -15 10 0 6 -2 8 -5 5 -10 -10 7 -38 19 -31 6 4 5 -1 -3 -10 -7 -9
-18 -14 -24 -10 -6 4 -7 1 -2 -7 5 -8 2 -17 -6 -24 -8 -6 -14 -18 -14 -26 0
-8 -8 -14 -17 -14 -11 1 -15 -4 -10 -15 5 -13 3 -14 -10 -3 -13 10 -17 10 -23
-5 -5 -10 -9 -23 -9 -29 -1 -12 -59 -64 -71 -64 -3 0 -13 -7 -21 -15 -8 -8
-22 -11 -32 -8 -9 3 -13 2 -9 -2 4 -5 -9 -17 -29 -27 -41 -20 -58 -23 -50 -9
4 5 -3 7 -15 4 -14 -4 -17 -8 -9 -13 16 -10 -6 -24 -25 -16 -8 3 -15 2 -15 -3
0 -16 -46 -29 -65 -18 -14 7 -20 7 -23 -1 -2 -7 -8 -12 -13 -12 -6 0 -7 5 -3
12 5 7 3 8 -7 2 -8 -4 -27 -8 -44 -7 -29 2 -29 2 -5 -6 18 -7 0 -9 -62 -10
-59 -1 -88 3 -88 10 0 7 -11 9 -27 6 -15 -3 -36 -1 -45 4 -11 6 -18 6 -18 0 0
-5 -11 -6 -27 -2 -16 5 -27 13 -26 19 2 6 -4 9 -12 5 -9 -3 -24 2 -34 11 -10
9 -27 15 -39 14 -11 -2 -20 2 -19 7 1 6 8 9 16 8 9 -1 10 2 3 9 -7 7 -16 6
-30 -1 -14 -7 -24 -7 -38 3 -17 13 -16 14 11 9 17 -3 27 -3 24 1 -4 4 -21 8
-38 8 -17 1 -31 5 -31 10 0 4 -7 8 -16 8 -10 0 -14 6 -11 15 4 8 1 17 -5 21
-7 5 -8 2 -3 -5 5 -9 2 -12 -11 -9 -11 2 -18 10 -16 17 1 7 -1 10 -6 7 -5 -3
-23 9 -39 27 -17 18 -38 38 -48 46 -9 7 -14 20 -11 28 3 8 1 11 -4 8 -6 -3
-10 1 -10 9 0 9 -6 16 -14 16 -17 0 -30 35 -20 52 4 7 4 10 -1 6 -12 -12 -34
24 -35 55 0 16 -4 26 -9 23 -4 -3 -13 6 -20 20 -14 32 -14 34 7 35 16 1 16 2
0 6 -17 4 -18 46 -18 692 0 536 3 690 13 700 10 11 9 12 -3 6 -13 -8 -13 -7
-1 8 11 15 34 17 152 17 77 0 140 -1 140 -2z m5056 -63 c1 -44 1 -46 -7 -17
-4 18 -11 36 -15 40 -4 4 -5 -4 -2 -18 5 -22 9 -879 8 -1580 l-1 -245 -115 0
c-108 0 -115 1 -116 20 0 20 0 20 -9 0 -5 -11 -9 316 -9 762 -1 430 -4 788 -7
797 -3 9 -15 16 -26 16 -10 0 -17 -4 -14 -9 7 -11 -36 -23 -44 -12 -3 4 -16 4
-30 0 l-25 -7 25 -2 c24 -2 24 -2 -5 -11 -16 -4 -54 -14 -83 -21 -29 -8 -50
-17 -46 -21 4 -4 1 -7 -7 -7 -8 0 -33 -9 -57 -20 -23 -10 -45 -19 -47 -20 -3
0 -13 -7 -22 -16 -40 -35 -193 -125 -203 -119 -6 4 -9 2 -8 -3 2 -5 -14 -24
-36 -41 -40 -32 -52 -38 -41 -21 3 6 -1 7 -9 4 -9 -3 -14 -10 -11 -14 7 -12
-55 -71 -67 -64 -6 4 -8 3 -4 -4 10 -16 -15 -27 -26 -11 -7 11 -8 11 -6 -1 4
-20 -37 -71 -53 -68 -7 2 -14 -1 -14 -7 -3 -23 -18 -45 -26 -39 -5 3 -9 -2 -9
-10 0 -9 -5 -16 -11 -16 -6 0 -8 8 -4 19 3 11 0 23 -6 27 -7 4 -9 3 -6 -4 4
-5 4 -17 1 -26 -5 -12 -10 -10 -29 12 -17 19 -20 29 -12 35 8 6 6 7 -4 4 -25
-8 -171 144 -163 169 5 17 4 17 -6 2 -6 -10 -17 -15 -27 -11 -15 6 -14 7 3 14
17 7 16 8 -6 9 -31 1 -64 25 -55 39 4 7 0 8 -10 5 -17 -7 -58 24 -49 37 3 5
-1 7 -8 4 -7 -2 -26 7 -43 21 -16 15 -24 23 -16 19 9 -5 12 -4 7 3 -4 6 -14 8
-23 5 -11 -4 -14 -3 -9 5 5 8 1 10 -10 5 -13 -5 -15 -3 -9 7 5 8 4 11 -3 7
-14 -9 -43 3 -36 15 3 5 0 9 -7 7 -31 -4 -44 2 -24 11 20 9 20 9 -1 9 -11 1
-25 6 -32 13 -14 14 -45 20 -37 8 3 -4 -4 -6 -15 -3 -11 3 -18 8 -16 12 3 4
-4 13 -16 20 -14 9 -18 9 -13 1 6 -9 -4 -10 -36 -5 -24 4 -51 11 -59 15 -30
15 -138 21 -146 9 -4 -7 -6 -341 -5 -743 1 -402 -1 -750 -5 -773 -4 -27 -12
-43 -21 -43 -8 0 -11 5 -8 12 4 7 0 5 -9 -5 -13 -17 -23 -18 -93 -11 -43 4
-82 8 -88 9 -5 1 -22 3 -37 3 l-28 2 -2 213 -3 212 -623 3 c-549 2 -623 1
-628 -13 -3 -8 -11 -12 -18 -8 -6 4 -4 -2 4 -12 8 -10 10 -16 4 -12 -7 4 -11
-5 -11 -24 0 -17 -4 -34 -10 -37 -6 -4 -10 -16 -10 -27 0 -11 -1 -47 -2 -80
-2 -46 -5 -55 -12 -40 -8 16 -8 15 -4 -8 3 -16 3 -61 -1 -100 -6 -72 -6 -72
-38 -75 -47 -3 -55 -3 -139 -1 l-78 2 5 81 c8 111 12 173 14 224 1 30 6 41 14
36 6 -4 8 -3 5 3 -7 11 13 83 22 83 3 0 6 22 7 49 1 61 22 119 36 99 7 -9 8
-8 4 6 -7 21 21 106 35 106 5 0 6 6 3 14 -3 8 0 25 7 38 7 13 14 29 15 36 1 7
15 34 30 60 16 26 45 78 65 116 36 70 54 88 62 64 2 -7 3 -4 1 8 -4 25 41 94
62 94 11 0 14 6 8 23 l-7 22 23 -20 23 -20 -12 23 c-10 19 -10 27 1 40 20 25
29 31 50 27 10 -2 16 0 13 6 -4 5 -11 6 -17 3 -6 -4 -9 -1 -6 7 3 8 15 19 27
25 13 7 18 13 12 15 -13 5 74 105 88 102 6 -2 8 4 5 12 -7 17 11 21 21 5 3 -5
11 -10 18 -10 6 0 3 6 -7 13 -17 13 -17 14 8 31 15 9 31 14 36 11 6 -3 7 1 4
10 -4 11 -2 14 9 9 10 -4 15 0 14 13 -1 11 4 18 15 17 10 -1 16 2 13 6 -6 9
29 42 41 38 5 -2 11 2 13 7 10 24 67 56 91 50 19 -4 22 -3 10 5 -13 8 -13 11
-1 19 8 5 20 7 27 4 6 -2 15 1 20 8 5 8 3 10 -7 5 -8 -4 -3 2 11 13 14 11 31
19 37 16 7 -2 12 1 10 7 -1 7 7 13 18 15 16 3 17 2 5 -6 -8 -6 -10 -11 -5 -11
15 1 46 26 39 33 -12 11 58 39 83 32 18 -4 23 -2 17 6 -5 9 -1 10 14 7 12 -4
20 -2 16 3 -3 5 1 9 10 9 8 0 16 5 18 12 2 6 13 12 24 13 10 1 32 8 48 16 21
10 30 11 33 2 2 -6 14 -8 25 -5 21 5 21 6 2 13 -13 5 -7 8 24 8 24 1 41 5 38
10 -3 5 11 11 32 15 52 8 74 7 68 -3 -4 -5 5 -4 18 2 14 7 20 15 14 18 -5 3 9
9 32 13 23 4 47 2 54 -3 7 -6 31 -6 65 1 30 5 129 7 220 5 192 -6 174 -4 166
-17 -3 -5 -1 -10 6 -10 7 0 23 -10 36 -22 19 -18 25 -19 36 -8 6 7 7 10 1 7
-6 -4 -20 0 -30 8 -18 14 -17 15 7 9 52 -11 99 -31 92 -37 -3 -4 6 -7 20 -7
15 0 27 -5 27 -12 0 -6 3 -9 6 -5 9 8 86 -32 80 -42 -3 -4 5 -7 17 -7 12 1 22
-4 22 -11 0 -6 4 -15 9 -20 5 -5 6 -3 2 5 -4 7 -1 12 9 12 8 0 18 -7 21 -15 4
-8 12 -15 20 -15 8 0 11 -6 7 -16 -4 -10 -1 -14 8 -12 22 5 91 -42 85 -58 -3
-8 0 -11 10 -7 19 7 18 -7 -1 -21 -13 -9 -11 -11 9 -11 16 0 22 4 18 15 -3 8
11 0 31 -19 24 -22 34 -40 31 -54 -3 -16 -1 -18 8 -9 18 18 32 14 17 -5 -10
-12 -10 -15 -1 -9 14 8 45 -18 34 -29 -4 -5 -2 -5 4 -2 12 7 67 -45 59 -56 -3
-4 -2 -5 2 -2 3 3 13 -1 21 -8 10 -7 13 -8 9 -1 -9 16 38 45 60 37 10 -3 15
-2 10 2 -9 11 23 46 35 39 4 -3 7 0 6 8 -2 7 3 12 10 10 8 -1 11 2 8 7 -4 5 7
19 23 30 31 23 46 27 36 11 -3 -5 0 -7 9 -4 8 3 12 12 10 19 -5 13 45 55 65
55 6 0 11 4 11 9 0 5 10 13 23 17 12 4 25 11 29 17 4 8 15 7 35 -1 26 -11 26
-11 9 3 -16 12 -17 15 -4 20 8 3 19 5 24 4 5 -1 16 -1 24 1 11 1 9 4 -5 10
-17 7 -14 9 13 9 18 1 31 5 28 9 -3 5 9 16 25 26 23 13 33 15 44 6 9 -7 15 -8
20 0 3 5 0 10 -7 11 -7 0 -2 5 11 10 13 5 33 7 45 4 15 -5 17 -4 7 3 -11 8
-10 12 5 20 11 5 24 7 31 5 6 -2 23 3 37 13 14 9 26 12 26 6 0 -6 9 -8 21 -5
16 4 17 8 7 14 -8 5 8 8 40 7 29 0 56 3 60 7 4 4 -6 5 -21 3 -20 -4 -25 -2
-18 5 6 6 41 12 78 14 38 1 70 3 73 3 3 0 -2 5 -10 10 -17 11 20 14 126 10 38
-1 65 3 69 10 4 6 17 10 28 8 19 -3 22 -10 24 -53z"/>
<path d="M3488 1804 c-3 -3 -26 -7 -49 -9 -24 -2 -53 -7 -63 -11 -15 -6 -17
-4 -11 6 5 9 4 11 -4 6 -6 -4 -9 -11 -6 -16 3 -4 -16 -11 -42 -15 -25 -4 -56
-13 -68 -21 -12 -8 -31 -12 -41 -8 -14 4 -15 3 -6 -4 11 -7 10 -10 -3 -16 -24
-9 -37 -7 -30 4 3 6 1 10 -4 10 -6 0 -11 -7 -11 -15 0 -8 -4 -15 -10 -15 -17
0 -25 -3 -39 -17 -7 -8 -20 -12 -28 -9 -8 3 -11 1 -8 -4 3 -6 -2 -13 -12 -17
-10 -4 -39 -21 -64 -39 -33 -23 -54 -31 -70 -27 -15 4 -20 3 -15 -6 4 -6 13
-8 19 -5 20 12 4 -2 -46 -41 -27 -20 -55 -34 -63 -31 -7 3 -16 1 -19 -4 -4 -6
-1 -10 6 -10 6 0 0 -12 -14 -26 -15 -15 -31 -23 -38 -18 -8 5 -9 3 -4 -6 6
-10 4 -12 -8 -7 -9 3 -16 3 -16 -1 3 -19 -2 -23 -16 -12 -12 10 -13 8 -10 -10
3 -16 0 -20 -11 -16 -10 4 -14 0 -12 -12 2 -10 -2 -16 -11 -14 -8 2 -11 -3 -8
-12 4 -9 1 -13 -6 -10 -7 2 -18 -9 -25 -25 -9 -20 -18 -28 -28 -24 -9 3 -12 0
-9 -9 7 -17 -49 -91 -60 -80 -5 4 -5 -1 -2 -10 4 -12 2 -15 -9 -11 -10 3 -12
0 -8 -10 3 -8 0 -18 -7 -23 -7 -4 -10 -3 -5 4 3 6 2 13 -3 17 -6 3 -8 -3 -6
-14 2 -12 -19 -53 -51 -102 -30 -45 -54 -89 -54 -97 0 -8 -6 -12 -15 -9 -8 4
-17 1 -21 -5 -5 -7 -2 -8 6 -3 10 6 11 2 6 -19 -7 -28 11 -56 36 -56 10 0 9 3
-2 10 -10 7 178 9 555 7 l570 -2 3 463 c2 381 0 462 -11 462 -8 0 -16 -3 -19
-6z"/>
</g>
</svg>
